<svg clip-rule="evenodd" fill-rule="evenodd" stroke-linejoin="round" stroke-miterlimit="2" viewBox="0 0 560 400" xmlns="http://www.w3.org/2000/svg"><g fill-rule="nonzero"><path d="m0 0c.391.649.564 1.429.476 2.208-.085.955-.215 1.69-.388 2.254-.391 1.17-1.301 2.208-3.076 3.552-1.343.997-2.948 1.992-4.68 2.86-3.248 1.689-8.274 3.682-13.515 3.682h-.734c-2.73 0-5.936 1.083-8.751 2.035-1.517.519-2.945.995-4.331 1.344-1.041.258-3.033.691-4.938.691h-.046c-5.414 0-8.662-.952-11.262-1.689-.649-.173-1.255-.388-1.862-.519-2.988-.737-5.329-1.04-7.926-1.04-5.026 0-10.961 1.213-19.363 3.985-.391.131-.825.216-1.256.216-1.689 0-3.163-.995-3.813-2.554-1.516-3.77-.909-8.405 1.559-12.087.346-.519.737-1.04 1.171-1.517-11.219-5.371-16.982-13.816-19.839-20.228-1.69-3.77-2.818-7.752-3.249-11.61-.391-3.552-.176-6.67.607-8.748.258-.737.779-1.344 1.428-1.735-1.516-12.172 2.73-23.043 9.139-28.806.649-.606 1.517-.909 2.427-.909.345 0 .649.045.952.13 1.344-2.296 2.903-4.374 4.68-6.236 5.196-5.287 12.172-8.448 20.835-9.4h.388c1.386 0 2.599.78 3.206 1.947 3.901-1.082 7.971-1.559 11.611-1.559 16.764 0 19.448 9.315 19.839 11.696-2.687-.952-5.329-.692-6.757-.606-1.778.13-4.247 1.082-5.675 1.95-2.211 1.343-7.495 5.76-7.365 13.904.173 12.172 11.435 15.117 15.29 14.901 3.552-.172 6.889-1.17 9.618-3.378.043-.043.085-.088.131-.131l.127-.13c2.211-1.732 4.984-2.685 7.756-2.685 2.296 0 4.547.607 6.497 1.82 3.767 2.296 6.063 6.324 6.063 10.741 0 1.082-.127 2.08-.346 3.075 0 .046-.042.088-.042.176-.303 1.21-.825 2.339-1.559 3.506-.607 2.818-1.301 4.853-3.076 7.365-.173.261-.434.521-.694.737h.088c.476 0 .952.088 1.428.261 3.943 1.601 5.329 5.283 5.891 7.188l.13.088c.173.216 1.256 1.69 1.82 2.86l.088.173c.127.258.215.476.303.692.734 1.862 1.256 3.855 1.514 5.89.088 1.259-.085 2.515-.519 3.64" fill="#fff" transform="matrix(2.53391 0 0 -2.53391 413.62752652 118.2302845)"/><path d="m0 0c-1.689 1.04-3.163 2.469-3.943 3.64-.128.215.13.476.349.346 1.386-.823 3.682-2.209 5.283-2.861.088-.042.216.046.216.131-.043.649-.128 1.17-.258 1.474-.476 1.471-9.921 7.84-18.323 7.667-4.938-.13-10.355 2.512-14.295 3.464-.998.261-2.688.565-4.116.607-6.282 0-9.27-1.386-12.303-2.123-7.191-1.775-13.991-1.993-29.194 3.033-.26.085-.606-.043-.694-.303-2.427-6.021 3.033-14.945 12.129-13.04.131.046.216-.13.085-.215-1.559-1.256-4.892-1.647-6.973-1.04-.388.13-.822.172-1.256.13-22.742-8.793-26.033-31.839-23.694-37.556 1.428 5.153 3.682 7.925 5.717 9.963-8.317-16.287-3.637-32.618 4.159-39.245-1.214 3.81-1.256 7.795-.434 11.131 2.426-14.813 11.089-24.82 27.419-26.467-3.506 1.559-5.975 5.111-6.8 7.495 6.931-7.537 28.157-9.833 34.265-3.075-2.557.13-5.717 1.428-7.495 2.469-4.895 2.987-9.008 8.62-9.226 16.418-.131 4.807 1.907 10.264 6.757 14.641-10.006-1.908-25.081 6.454-23.952 22.566 1.083-18.538 18.02-23.261 28.545-19.882 2.338.998 4.895 1.605 7.579 1.605 4.505 0 8.621-1.562 11.869-4.162.088-.085.173-.127.261-.215 1.516-1.213 3.464-1.95 5.587-1.95 1.735 0 3.294.479 4.68 1.301 2.599 1.601 4.331 4.462 4.331 7.71 0 .822-.088 1.559-.261 2.254v.085c-.303 1.125-.822 2.08-1.471 2.99-.564 2.857-1.083 4.504-2.644 6.755-.128.176-.346.088-.389-.127-.042-.956-.13-1.82-.303-2.6-.13-.694-.346-1.862-.564-2.772-.389-1.432 1.04-1.432 1.732-1.517-.173-.476-2.121-.391-2.208-.042v.042c0 .173-.043.477-.085.865-.219 2.123-.91 4.637-2.861 6.281-.172.173-.476-.042-.476-.388-.261-2.642-.91-5.59-1.689-7.234v-.088c-2.557.476-5.806 1.732-9.27 2.123-5.978.65-9.011 1.344-9.314 4.723 0 .13.173.173.218.042.865-1.689 1.69-3.206 6.627-3.985.173-.043.258.215.086.303-3.768 2.166-3.595 3.725-3.379 6.54 0 .176.045.303.087.433.865 4.55 4.505 7.626 7.104 9.185.131.088.088.303-.088.303-3.637-.434-7.188-2.035-9.745-5.978.261.779.649 1.604 1.17 2.384 4.374 6.712 12.691 5.326 18.669 4.286.346-1.775.261-4.332-.13-6.67-.042-.304.218-.564.476-.476 3.294 1.298 4.765 4.158 5.502 6.366.649-.127 1.905-.303 3.164-.258.042 0 .042-.045 0-.045-1.086-.128-2.081-.173-2.211-.128-.043 0-.085-.088-.043-.13.304-1.171.261-3.164 0-4.896-.042-.215.131-.391.304-.303 3.248 1.344 3.812 5.026 4.115 5.978.128.043.216.131.304.173 0 0 .042 0 .042-.042 0 .042.043.042.043.085.173.218.998 1.386 1.386 2.166 0 0 0 .045.042.045 0 .042.046.085.046.127.085.173.13.304.215.477.695 1.689 1.083 3.424 1.301 5.068.258 1.647-.479 3.121-1.777 3.943m-36.128 6.627c-.388.998-.388 1.993.219 2.773.388.518-.434 1.125-1.993.564.388.303.865.476 1.386.561.476.088.995.045 1.517-.042.995-.173 1.947-.519 2.727-1.126.694-.434 1.386-.998 2.211-1.474-.046-.692-.261-1.386-.695-2.166-1.732.565-3.291 1.126-5.372.91m5.894-1.082c.606.391 1.125.952 1.513 1.689.046 0 .131-.043.176-.043.303-.087.607-.172.953-.26.303-.043.649-.088.952-.088s.649.045.995.045c-.734-.434-2.469-1.908-4.589-1.343" transform="matrix(2.53391 0 0 -2.53391 401.27218136 116.583243)"/></g></svg>